<mxfile host="app.diagrams.net" modified="2023-03-05T08:50:29.805Z" agent="5.0 (Windows NT 10.0; Win64; x64) AppleWebKit/537.36 (KHTML, like Gecko) Chrome/110.0.0.0 Safari/537.36" etag="s2uuYFbGQ27nUnHqib0G" version="21.0.2" type="github">
  <diagram name="Page-1" id="xl4MJ88EjeMnw6IJl3ZT">
    <mxGraphModel dx="1434" dy="764" grid="1" gridSize="10" guides="1" tooltips="1" connect="1" arrows="1" fold="1" page="1" pageScale="1" pageWidth="850" pageHeight="1100" math="0" shadow="0">
      <root>
        <mxCell id="0" />
        <mxCell id="1" parent="0" />
        <mxCell id="a2OSM05QCFBGGNWs0fvZ-5" style="edgeStyle=orthogonalEdgeStyle;rounded=0;orthogonalLoop=1;jettySize=auto;html=1;entryX=0;entryY=0.5;entryDx=0;entryDy=0;" edge="1" parent="1" source="a2OSM05QCFBGGNWs0fvZ-1" target="a2OSM05QCFBGGNWs0fvZ-2">
          <mxGeometry relative="1" as="geometry" />
        </mxCell>
        <mxCell id="a2OSM05QCFBGGNWs0fvZ-6" style="edgeStyle=orthogonalEdgeStyle;rounded=0;orthogonalLoop=1;jettySize=auto;html=1;entryX=0;entryY=0.5;entryDx=0;entryDy=0;" edge="1" parent="1" source="a2OSM05QCFBGGNWs0fvZ-1" target="a2OSM05QCFBGGNWs0fvZ-4">
          <mxGeometry relative="1" as="geometry" />
        </mxCell>
        <mxCell id="a2OSM05QCFBGGNWs0fvZ-7" style="edgeStyle=orthogonalEdgeStyle;rounded=0;orthogonalLoop=1;jettySize=auto;html=1;entryX=0;entryY=0.5;entryDx=0;entryDy=0;" edge="1" parent="1" source="a2OSM05QCFBGGNWs0fvZ-1" target="a2OSM05QCFBGGNWs0fvZ-3">
          <mxGeometry relative="1" as="geometry" />
        </mxCell>
        <mxCell id="a2OSM05QCFBGGNWs0fvZ-9" style="edgeStyle=orthogonalEdgeStyle;rounded=0;orthogonalLoop=1;jettySize=auto;html=1;entryX=0;entryY=0.5;entryDx=0;entryDy=0;" edge="1" parent="1" source="a2OSM05QCFBGGNWs0fvZ-1" target="a2OSM05QCFBGGNWs0fvZ-8">
          <mxGeometry relative="1" as="geometry" />
        </mxCell>
        <mxCell id="a2OSM05QCFBGGNWs0fvZ-11" style="edgeStyle=orthogonalEdgeStyle;rounded=0;orthogonalLoop=1;jettySize=auto;html=1;entryX=0;entryY=0.5;entryDx=0;entryDy=0;" edge="1" parent="1" source="a2OSM05QCFBGGNWs0fvZ-1" target="a2OSM05QCFBGGNWs0fvZ-10">
          <mxGeometry relative="1" as="geometry" />
        </mxCell>
        <mxCell id="a2OSM05QCFBGGNWs0fvZ-1" value="RRHH" style="shape=umlActor;verticalLabelPosition=bottom;verticalAlign=top;html=1;outlineConnect=0;" vertex="1" parent="1">
          <mxGeometry x="120" y="220" width="30" height="60" as="geometry" />
        </mxCell>
        <mxCell id="a2OSM05QCFBGGNWs0fvZ-2" value="CRUD empresas" style="ellipse;whiteSpace=wrap;html=1;" vertex="1" parent="1">
          <mxGeometry x="240" y="100" width="120" height="80" as="geometry" />
        </mxCell>
        <mxCell id="a2OSM05QCFBGGNWs0fvZ-3" value="CRUD empleados" style="ellipse;whiteSpace=wrap;html=1;" vertex="1" parent="1">
          <mxGeometry x="240" y="280" width="120" height="80" as="geometry" />
        </mxCell>
        <mxCell id="a2OSM05QCFBGGNWs0fvZ-4" value="CRUD proyectos" style="ellipse;whiteSpace=wrap;html=1;" vertex="1" parent="1">
          <mxGeometry x="240" y="190" width="120" height="80" as="geometry" />
        </mxCell>
        <mxCell id="a2OSM05QCFBGGNWs0fvZ-8" value="Crear informe sobre cumplimiento de horas" style="ellipse;whiteSpace=wrap;html=1;" vertex="1" parent="1">
          <mxGeometry x="240" y="370" width="120" height="80" as="geometry" />
        </mxCell>
        <mxCell id="a2OSM05QCFBGGNWs0fvZ-10" value="Acceder datos marcajes empleados" style="ellipse;whiteSpace=wrap;html=1;" vertex="1" parent="1">
          <mxGeometry x="240" y="460" width="120" height="80" as="geometry" />
        </mxCell>
        <mxCell id="a2OSM05QCFBGGNWs0fvZ-17" style="edgeStyle=orthogonalEdgeStyle;rounded=0;orthogonalLoop=1;jettySize=auto;html=1;entryX=1;entryY=0.5;entryDx=0;entryDy=0;" edge="1" parent="1" source="a2OSM05QCFBGGNWs0fvZ-12" target="a2OSM05QCFBGGNWs0fvZ-13">
          <mxGeometry relative="1" as="geometry" />
        </mxCell>
        <mxCell id="a2OSM05QCFBGGNWs0fvZ-18" style="edgeStyle=orthogonalEdgeStyle;rounded=0;orthogonalLoop=1;jettySize=auto;html=1;entryX=1;entryY=0.5;entryDx=0;entryDy=0;" edge="1" parent="1" source="a2OSM05QCFBGGNWs0fvZ-12" target="a2OSM05QCFBGGNWs0fvZ-14">
          <mxGeometry relative="1" as="geometry" />
        </mxCell>
        <mxCell id="a2OSM05QCFBGGNWs0fvZ-12" value="Empleado" style="shape=umlActor;verticalLabelPosition=bottom;verticalAlign=top;html=1;outlineConnect=0;" vertex="1" parent="1">
          <mxGeometry x="660" y="350" width="30" height="60" as="geometry" />
        </mxCell>
        <mxCell id="a2OSM05QCFBGGNWs0fvZ-13" value="Marcaje de entrada" style="ellipse;whiteSpace=wrap;html=1;" vertex="1" parent="1">
          <mxGeometry x="480" y="300" width="120" height="80" as="geometry" />
        </mxCell>
        <mxCell id="a2OSM05QCFBGGNWs0fvZ-14" value="Marcaje de salida" style="ellipse;whiteSpace=wrap;html=1;" vertex="1" parent="1">
          <mxGeometry x="480" y="390" width="120" height="80" as="geometry" />
        </mxCell>
        <mxCell id="a2OSM05QCFBGGNWs0fvZ-20" value="&amp;lt;&amp;lt;include&amp;gt;&amp;gt;" style="html=1;verticalAlign=bottom;labelBackgroundColor=none;endArrow=open;endFill=0;dashed=1;rounded=0;entryX=1;entryY=0;entryDx=0;entryDy=0;exitX=0;exitY=0.5;exitDx=0;exitDy=0;" edge="1" parent="1" source="a2OSM05QCFBGGNWs0fvZ-13" target="a2OSM05QCFBGGNWs0fvZ-10">
          <mxGeometry width="160" relative="1" as="geometry">
            <mxPoint x="530" y="370" as="sourcePoint" />
            <mxPoint x="690" y="370" as="targetPoint" />
          </mxGeometry>
        </mxCell>
        <mxCell id="a2OSM05QCFBGGNWs0fvZ-21" value="&amp;lt;&amp;lt;include&amp;gt;&amp;gt;" style="html=1;verticalAlign=bottom;labelBackgroundColor=none;endArrow=open;endFill=0;dashed=1;rounded=0;entryX=1;entryY=0;entryDx=0;entryDy=0;exitX=0;exitY=0.5;exitDx=0;exitDy=0;" edge="1" parent="1" source="a2OSM05QCFBGGNWs0fvZ-14">
          <mxGeometry width="160" relative="1" as="geometry">
            <mxPoint x="490" y="350" as="sourcePoint" />
            <mxPoint x="352" y="482" as="targetPoint" />
          </mxGeometry>
        </mxCell>
      </root>
    </mxGraphModel>
  </diagram>
</mxfile>
